<svg version="1.1" xmlns="http://www.w3.org/2000/svg" viewBox="0 0 120.00 120.00">
<g transform="translate(0.000000 0.000000) scale(0.800000,0.800000)">
<g transform=" translate(26.250000, 2.000000) scale(0.629032,0.519573) translate(-207.000000, -203.000000)" style="fill-opacity:1.0;stroke-width:10.4475;">
<path style="fill:#000000" d="m 280,332.36218 c 6.35627,1.86577 3.05771,2.03469 10,0 l 0,15 70,0 0,5 -70,0 0,45 70,80 -5,5 -70,-80 -70,80 -5,-5 70,-80 0,-45 -70,0 0,-5 70,0 0,-15 z"/>
<path d="M 343.87939,263.93616 A 59.192352,58.789684 0 1 1 225.49469,263.93616 A 59.192352,58.789684 0 1 1 343.87939,263.93616 z"/>
</g>
</g>
</svg>
