<svg version="1.1" xmlns="http://www.w3.org/2000/svg" viewBox="0 0 120.00 120.00">
<g transform="translate(0.000000 0.000000) scale(0.800000,0.800000)">
<g transform=" translate(2.570313, 2.000000) scale(1.140625,1.140625) translate(-111.000000, -103.000000)" style="fill-opacity:1.0;stroke-width:5.2603;">
<path d="M 120,112.36218 c 10,-10 100,-10 110,0 10,10 10,100 0,110 -10,10 -100,10 -110,0 -10,-10 -10,-100 0,-110 z"/>
<path style="fill:#000000;stroke:none" d="M 173.28742,177.58938 l -2.81445,-34.88802 l 0,-14.59282 l 11.41127,0 l 0,14.59282 l -2.66092,34.88802 l -5.9359,0 z"/>
<path style="fill:#000000;stroke:none" d="M 170.88234,205.93332 l 0,-9.20469 l 10.59253,0 l 0,9.20469 l -10.59253,0 z"/>
</g>
</g>
</svg>
