<svg version="1.1" xmlns="http://www.w3.org/2000/svg" viewBox="0 0 120.00 120.00">
<g transform="translate(0.000000 0.000000) scale(0.800000,0.800000)">
<g transform=" translate(2.000000, 24.525714) scale(0.417143,0.417143) translate(-194.000000, -251.000000)" style="fill-opacity:1.0;stroke-width:14.3836;">
<path d="M 220,332.36 C 170,272.36 240,242.36 280,272.36 C 290,242.36 350,252.36 360,272.36 C 390,252.36 480,252.36 480,272.36 C 540,252.36 560,332.36 520,352.36 C 560,352.36 540.67,407.98 520,432.36 C 520,512.36 440,492.36 400,472.36 C 360,492.36 200,512.36 240,452.36 C 180,452.36 190,332.36 220,332.36 z"/>
</g>
</g>
</svg>
