<svg version="1.1" xmlns="http://www.w3.org/2000/svg" viewBox="0 0 120.00 120.00">
<g transform="translate(0.000000 0.000000) scale(0.800000,0.800000)">
<g transform=" translate(2.000000, 2.000000) scale(0.481848,0.481848) translate(-68.000000, -280.000000)" style="fill-opacity:1.0;stroke-width:12.4521;">
<path style="fill:none;stroke-opacity:0" d="m 70,282.36218 300,0 0,300 -300,0 z"/>
<path style="fill:#000000;" d="m 109.76981,364.79225 c -4.2377,-4.46867 -11.75491,-11.5109 -16.70491,-15.64939 -4.95,-4.1385 -9.35652,-8.12634 -9.79228,-8.86189 -0.92716,-1.56504 -0.12551,-3.20549 6.65279,-13.61385 6.42675,-9.86855 7.49013,-9.95868 17.5173,-1.48487 11.76487,9.94231 10.12891,9.63685 16.21157,3.02694 15.60675,-16.95956 37.69553,-36.29207 41.46629,-36.29207 2.79956,0 6.37745,5.03331 10.11539,14.23013 3.85807,9.4924 3.59082,10.2205 -6.88932,18.76987 -13.13151,10.71226 -28.0027,25.2338 -38.34664,37.44506 -5.20755,6.14761 -9.68398,10.5495 -10.73019,10.55151 -0.98731,0.002 -5.26231,-3.65276 -9.5,-8.12144 z"/>
<path style="fill:none;" d="m 90,412.36218 60,0 0,60 -60,0 z"/>
<path style="fill:none;" d="m 90,512.36218 60,0 0,60 -60,0 z"/>
<path style="fill:#000000;" d="m 220,332.36218 140,0 0,20 -140,0 z"/>
<path style="fill:#000000;" d="m 220,432.36218 140,0 0,20 -140,0 z"/>
<path style="fill:#000000;" d="m 220,532.36218 140,0 0,20 -140,0 z"/>
</g>
</g>
</svg>
