<svg version="1.1" xmlns="http://www.w3.org/2000/svg" viewBox="0 0 120.00 120.00">
<g transform="translate(0.000000 0.000000) scale(0.800000,0.800000)">
<g transform=" translate(2.000000, 10.527434) scale(0.258407,0.258407) translate(-85.000000, -514.000000)" style="fill-opacity:1.0;stroke-width:23.2192;">
<path

 d="m 86.980304,763.88928 0,-248.00001 39.999986,0 40,0 0,161.50001 c 0,88.825 0.15497,161.5 0.34437,161.5 0.1894,0 35.75678,-19.5958 79.03862,-43.5462 43.28184,-23.9504 79.35187,-43.7986 80.15563,-44.107 1.26838,-0.4867 1.46138,5.3303 1.46138,44.0462 0,24.5339 0.25115,44.607 0.55811,44.607 0.44829,0 144.34899,-79.2998 156.18162,-86.0675 l 3.23974,-1.8529 0.26026,44.3367 0.26027,44.3368 73,-40.4326 c 40.15,-22.2379 76.2625,-42.2388 80.25,-44.4466 l 7.25,-4.014 0,130.07 0,130.07012 -281,0 -280.999986,0 0,-248.00002 z"/>
</g>
</g>
</svg>
