<svg version="1.1" xmlns="http://www.w3.org/2000/svg" viewBox="0 0 120.00 120.00">
<g transform="translate(0.000000 0.000000) scale(0.800000,0.800000)">
<g transform=" translate(2.000000, 2.454829) scale(0.454829,0.454829) translate(-230.000000, -382.000000)" style="fill-opacity:1.0;stroke-width:13.1918;">
<path

 style="stroke-linejoin:round;stroke-linecap:round" d="m 322.12664,698.36306 c -12.60017,-2.67104 -22.63853,-5.86829 -23.22528,-7.39733 -0.43957,-1.1455 1.33508,-14.16871 3.16201,-23.20438 0.59335,-2.93461 0.32608,-3.27064 -4.98574,-6.26845 -3.08699,-1.74219 -7.4154,-4.79624 -9.61869,-6.78678 l -4.00598,-3.61917 -12.22648,5.15674 c -6.72457,2.8362 -13.01628,5.14813 -13.98159,5.13761 C 254.17057,661.34781 238.5,637.78628 238.5,633.19736 c 0,-0.75479 5.10607,-4.82205 11.34682,-9.03835 l 11.34681,-7.666 -1.29703,-6.81541 c -0.71336,-3.74848 -1.65693,-9.02234 -2.09681,-11.71968 L 257,593.05367 244.25,588.57345 c -12.66159,-4.44916 -12.74985,-4.50183 -12.72836,-7.59575 0.0332,-4.78371 3.60161,-19.86898 6.04167,-25.54104 2.56829,-5.97015 1.7538,-5.83815 18.8309,-3.05183 6.81682,1.11224 12.46003,1.89965 12.54045,1.7498 1.20422,-2.24358 6.87849,-9.32893 10.43841,-13.03423 l 4.57496,-4.76178 -5.72402,-11.49924 C 275.07581,518.51479 272.5,512.77902 272.5,512.09321 c 0,-3.00727 24.66668,-16.73103 30.07187,-16.73103 2.15798,0 4.02811,1.83415 10.45104,10.25 4.30251,5.6375 7.91523,10.38276 8.02828,10.54503 0.11304,0.16226 2.17277,-0.19808 4.57717,-0.80076 2.4044,-0.60268 8.11019,-1.41044 12.67952,-1.79503 l 8.30789,-0.69924 4.71959,-12 c 3.95137,-10.04673 5.09327,-12.05358 7.01529,-12.32914 4.82944,-0.69241 32.14555,6.35103 33.52302,8.64388 0.22642,0.37689 -0.58432,6.5909 -1.80165,13.8089 l -2.21332,13.12364 5.49575,3.28715 c 3.02266,1.80794 7.20294,4.8295 9.28951,6.71459 l 3.79377,3.42744 11.85667,-5.08823 c 6.52117,-2.79853 12.76544,-5.08823 13.87615,-5.08823 2.40528,0 3.51823,1.18072 10.36868,11 2.87782,4.125 4.98215,6.76917 4.67629,5.87593 -0.30586,-0.89324 -0.86882,-5.20895 -1.25102,-9.59048 l -0.69492,-7.96641 -4.63479,-1.20163 c -2.54913,-0.6609 -6.42838,-1.99991 -8.62055,-2.97559 l -3.98576,-1.77395 -7.98756,6.31607 c -4.39315,3.47383 -8.44956,6.31309 -9.01424,6.30947 C 408.08491,533.33671 390.5,517.38247 390.5,514.73237 c 0,-0.69424 2.92753,-4.60561 6.50562,-8.69194 l 6.50561,-7.4297 -3.07784,-6.87428 c -1.69282,-3.78085 -3.43035,-7.54927 -3.86119,-8.37427 -0.55973,-1.07182 -3.70172,-1.78545 -11.00712,-2.5 -7.30038,-0.71406 -10.44937,-1.42891 -11.01268,-2.5 -2.04548,-3.88924 -1.96155,-23.42418 0.10953,-25.49526 0.24977,-0.24977 5.33615,-1.02801 11.30307,-1.72943 l 10.84895,-1.27531 1.74134,-5.12998 c 0.95773,-2.82149 2.50743,-6.2992 3.44377,-7.72824 l 1.70244,-2.59826 -7.20164,-7.9757 -7.20165,-7.9757 2.02154,-2.79606 c 4.10095,-5.67217 16.27874,-16.29606 18.6796,-16.29606 0.67629,0 4.93479,2.85889 9.46333,6.3531 l 8.23371,6.3531 7.6518,-3.34089 c 4.2085,-1.83749 8.15077,-3.34639 8.76062,-3.3531 0.66153,-0.007 1.57592,-4.12011 2.26678,-10.19566 0.63689,-5.6009 1.41293,-10.4384 1.72453,-10.75 0.3116,-0.3116 6.62046,-0.56655 14.01969,-0.56655 10.43321,0 13.64678,0.31332 14.31578,1.39578 0.47445,0.76768 1.1576,4.36768 1.51811,8 1.22824,12.37522 1.32519,12.62408 5.37266,13.79038 2.0205,0.58223 5.71938,1.85408 8.21972,2.82634 l 4.54609,1.76774 7.95391,-6.1347 c 4.37466,-3.37409 8.58257,-6.13714 9.35093,-6.14012 3.02797,-0.0117 20.10299,15.83906 20.10299,18.66168 0,0.84358 -2.98772,4.87204 -6.63938,8.95213 l -6.63938,7.41834 3.13938,6.81097 c 1.72666,3.74604 3.13938,7.29719 3.13938,7.89145 0,0.64222 3.54911,1.34359 8.75,1.72916 13.73613,1.01835 13.91399,1.08325 14.61669,5.33344 0.78491,4.74746 0.78613,15.64001 0.002,20.38067 l -0.609,3.68326 -6.62999,0.60902 c -3.6465,0.33496 -8.65499,0.85084 -11.12999,1.1464 l -4.5,0.53738 -3.16542,7.49349 -3.16542,7.49349 6.91542,7.58628 c 3.80377,4.17246 6.91571,8.06569 6.91571,8.65163 0,1.90704 -17.72709,18.61579 -19.75035,18.61579 -1.0712,0 -5.64143,-2.74986 -10.15607,-6.11079 l -8.20843,-6.1108 -5.69257,2.49365 c -3.13092,1.3715 -6.89029,2.76994 -8.35415,3.10765 -2.8981,0.66857 -3.13937,1.47992 -4.42506,14.88076 -0.78641,8.19683 -0.27527,7.97703 -17.55617,7.5495 l -12.52882,-0.30997 1.83207,3 c 1.00764,1.65 1.81978,3.675 1.80475,4.5 -0.015,0.825 -5.2304,5.04193 -11.58971,9.37096 -10.65869,7.25578 -11.51838,8.07645 -10.99916,10.5 0.30978,1.44597 1.11439,6.47901 1.78803,11.18453 l 1.22481,8.55549 12.87506,4.40269 c 7.08129,2.42149 13.09006,4.75056 13.35283,5.17573 1.62944,2.63649 -6.75452,31.54238 -9.4485,32.57616 -1.26311,0.4847 -23.1257,-2.20595 -27.2515,-3.35387 -0.97124,-0.27023 -2.01091,0.49887 -2.69043,1.99026 -0.60912,1.33688 -3.59648,5.36468 -6.63857,8.95067 l -5.53107,6.51998 5.57049,11.58455 c 3.06377,6.3715 5.32875,12.21452 5.03329,12.98448 -0.8447,2.20127 -12.09736,9.42729 -21.30489,13.68118 -4.61568,2.13246 -8.76653,3.87719 -9.2241,3.87719 -0.45757,0 -4.34553,-4.6125 -8.63991,-10.25 -4.29438,-5.6375 -8.10963,-10.60029 -8.47834,-11.02842 -0.3687,-0.42813 -3.56008,-0.0973 -7.09195,0.73522 -3.53187,0.8325 -9.05121,1.52029 -12.2652,1.52842 -4.71371,0.0119 -5.9336,0.35316 -6.30897,1.76478 -1.52769,5.74501 -10.06804,23.75366 -11.34741,23.92776 -0.825,0.11227 -5.49301,-0.64233 -10.37336,-1.67688 z"/>
<path

 style="stroke-linejoin:round;stroke-linecap:round" d="m 337.01941,640.29447 c -11.99208,-2.00438 -24.44334,-8.52601 -31.09687,-16.28769 -1.95408,-2.27953 -5.17376,-7.42081 -7.15484,-11.42507 -10.80127,-21.83203 -0.84959,-48.95782 22.09846,-60.23488 16.53861,-8.12735 32.57288,-8.05988 49.63384,0.20887 16.36297,7.93046 27.51132,27.66222 25.53381,45.19295 -0.70333,6.2351 -3.65513,15.11549 -6.68374,20.10778 -3.60571,5.94358 -12.28948,13.61376 -19.34022,17.08278 -11.18497,5.5031 -21.79833,7.22594 -32.99044,5.35526 z"/>
<path

 style="stroke-linejoin:round;stroke-linecap:round" d="m 450.5,502.98834 c -7.77404,-2.1402 -12.30656,-4.84208 -18.58751,-11.08018 -7.91018,-7.85622 -10.69987,-14.64697 -10.69987,-26.04598 0,-10.09289 2.69279,-17.51013 8.83863,-24.34578 9.47846,-10.54233 20.00183,-14.71164 35.13442,-13.92011 7.87499,0.41191 10.30909,0.98106 15.83926,3.70355 13.17782,6.48742 21.39478,18.13075 22.25502,31.53512 0.6144,9.57372 -1.0777,16.24768 -5.98108,23.59056 -9.53011,14.27144 -29.47796,21.33129 -46.79887,16.56282 z"/>
</g>
</g>
</svg>
