<svg version="1.1" xmlns="http://www.w3.org/2000/svg" viewBox="0 0 120.00 120.00">
<g transform="translate(0.000000 0.000000) scale(0.800000,0.800000)">
<g transform=" translate(2.000000, 18.404494) scale(0.205056,0.205056) translate(-24.000000, -343.000000)" style="fill-opacity:1.0;stroke-width:29.2603;">
<path

 d="m 608.95033,658.83828 c 59.06716,-15.80533 101.89042,-55.18975 118.88385,-109.33709 7.1632,-22.82456 9.21231,-45.61047 5.90996,-65.71828 -9.08886,-55.34189 -43.56494,-99.34835 -96.25031,-122.85727 -27.53448,-12.28623 -45.38319,-16.06026 -76.28163,-16.12939 -30.7768,-0.0689 -48.26893,3.62976 -76.28162,16.12939 -36.01592,16.07078 -62.13383,40.1874 -79.53826,73.44355 -13.53688,25.8662 -17.54245,42.01796 -17.46789,70.43647 0.0749,28.53081 4.16208,45.01184 17.46789,70.43646 36.81382,70.3435 122.13637,105.38328 203.55801,83.59616 z" id="path3027" connector-curvature="0"/>
<path d="M 60 880 s 150 -350 300 -300 l -160 -30 s 100 100 70 180 l 90 -150" stroke-linejoin="round" stroke-width="78" fill="none"/>
<path style="stroke-linecap:round;stroke-width:78" d="m 564,505 l 0.01 0.01"/>
<path

 style="fill:none;" d="m 590.38847,598.30823 c 34.89648,-9.67474 60.19617,-33.78265 70.23577,-66.92722 4.23197,-13.97132 5.44257,-27.91899 3.49157,-40.22734 -5.36964,-33.87577 -25.73787,-60.81292 -56.86403,-75.20315 -16.26718,-7.52063 -26.81208,-9.83078 -45.06667,-9.87309 -18.18272,-0.0422 -28.51695,2.22184 -45.06666,9.87309 -21.27796,9.83721 -36.70824,24.59943 -46.99066,44.95612 -7.9975,15.83316 -10.36396,25.71995 -10.31991,43.11543 0.0442,17.46423 2.45893,27.55256 10.31991,43.11543 21.74935,43.05853 72.15733,64.50701 120.26068,51.17073 z" id="path3027-1" connector-curvature="0"/>
</g>
</g>
</svg>
