<svg version="1.1" xmlns="http://www.w3.org/2000/svg" viewBox="0 0 120.00 120.00">
<g transform="translate(0.000000 0.000000) scale(0.800000,0.800000)">
<g transform=" translate(2.000000, 26.250000) scale(0.941935,1.095506) translate(-460.000000, -835.000000)" style="fill-opacity:1.0;stroke-width:5.8897;">
<path

 style="stroke-linecap:round;stroke-linejoin:round" d="m 470.03755,921.81722 c -1.85469,-0.50698 -4.35439,-2.10156 -5.5549,-3.54349 -2.1124,-2.53725 -2.18271,-3.77229 -2.18271,-38.34014 0,-34.51561 0.0732,-35.80633 2.17289,-38.32833 1.19508,-1.43544 3.95313,-3.0628 6.12899,-3.61635 5.79609,-1.47457 114.9239,-1.19431 119.62622,0.30722 6.28175,2.00589 7.9835,5.39306 8.39834,16.71613 l 0.36366,9.9263 5.55629,0 c 8.36804,0 9.05848,1.15618 9.05848,15.16872 0,13.73959 -0.6818,14.82134 -9.34147,14.82134 l -5.47159,0 -0.002,8.7471 c -0.002,10.45258 -1.87784,14.88399 -7.40489,17.49265 -3.39581,1.60275 -8.44686,1.7405 -60.83937,1.65926 -31.42486,-0.0488 -58.65359,-0.50342 -60.50829,-1.01041 z" id="path3027" connector-curvature="0"/>
<path

 style="stroke-linecap:butt;stroke-linejoin:miter" d="m 599.54079,864.9759 -0.30211,29.90937" id="path3801" connector-curvature="0"/>
<path

 style="stroke-linecap:butt;stroke-linejoin:miter" d="m 490.2596,857.04923 0,45.76271" id="path2991" connector-curvature="0"/>
<path

 style="stroke-linecap:butt;stroke-linejoin:miter" d="m 514.55697,857.04923 0,45.76271" id="path2991-1" connector-curvature="0"/>
<path

 style="stroke-linecap:butt;stroke-linejoin:miter" d="m 538.6076,857.04923 0,45.76271" id="path2991-7" connector-curvature="0"/>
</g>
</g>
</svg>
