<svg version="1.1" xmlns="http://www.w3.org/2000/svg" viewBox="0 0 120.00 120.00">
<g transform="translate(0.000000 0.000000) scale(0.800000,0.800000)">
<g transform=" translate(2.000000, 2.000000) scale(2.920000,2.920000) translate(-188.000000, -323.000000)" style="fill-opacity:1.0;stroke-width:2.0548;">
<path d="m 198.78192,335.7091 c 2.25058,-5.5074 7.75124,-8.91435 13.25734,-10.52162 7.7349,-1.8549 16.81379,0.90707 21.20183,7.79004 3.78502,5.58344 5.01688,13.05846 2.31444,19.35716 -1.38821,3.54796 -3.77522,6.91075 -7.30707,8.56565"/>
<path d="m 230,352.36218 c 0,11.0457 -8.95431,20 -20,20 -11.04569,0 -20,-8.9543 -20,-20 0,-11.04569 8.95431,-20 20,-20 11.04569,0 20,8.95431 20,20 z"/>
</g>
</g>
</svg>
